<?xml version="1.0" encoding="iso-8859-1"?>
<!-- Generator: Adobe Illustrator 18.1.1, SVG Export Plug-In . SVG Version: 6.00 Build 0)  -->
<!DOCTYPE svg PUBLIC "-//W3C//DTD SVG 1.1//EN" "http://www.w3.org/Graphics/SVG/1.1/DTD/svg11.dtd">
<svg version="1.1" id="Layer_1" xmlns="http://www.w3.org/2000/svg" xmlns:xlink="http://www.w3.org/1999/xlink" x="0px" y="0px"
	 viewBox="0 0 84 84" style="enable-background:new 0 0 84 84;" xml:space="preserve">
<path style="fill:#666666;" d="M77.324,70.164c-7.896-4.022-19.444-8.671-19.444-8.671s-6.882-2.619-6.476-9.163
	c0.007-0.108,0.06-0.21,0.144-0.279c3.7-3.033,6.289-7.768,6.915-13.224c0.005-0.046,0.019-0.089,0.04-0.129
	c0.037-0.07,0.075-0.142,0.111-0.215c0.012-0.023,0.023-0.048,0.035-0.071c1.527,0.261,3.319-2.044,4.234-5.23
	c0.945-3.292,0.836-5.928-0.935-5.928c-0.043,0-0.087,0.001-0.131,0.002c-0.239,0.009-0.428-0.198-0.403-0.436
	c0.402-3.864,0.397-6.93,0.397-6.945c0,0,0,0,0-0.001C61.813,8.898,52.915,0,41.939,0C30.962,0,22.064,8.898,22.064,19.875
	c0,0-0.005,3.071,0.397,6.943c0.025,0.239-0.166,0.436-0.406,0.436c-0.002,0-0.003,0-0.005,0c-1.771,0-1.88,2.636-0.935,5.928
	c0.892,3.107,2.62,5.381,4.121,5.25c0.008,0.017,0.017,0.035,0.025,0.052c0.037,0.073,0.073,0.144,0.111,0.214
	c0.022,0.041,0.036,0.086,0.041,0.132c0.633,5.517,3.272,10.298,7.039,13.326c0.087,0.07,0.143,0.175,0.148,0.287
	c0.321,6.461-6.48,9.051-6.48,9.051s-11.548,4.649-19.444,8.671c-6.995,3.563-6.751,11.671-6.604,13.476
	C0.089,83.844,0.259,84,0.464,84h83.071c0.205,0,0.376-0.156,0.392-0.36C84.075,81.835,84.319,73.727,77.324,70.164z"/>
</svg>
