<?xml version="1.0" encoding="utf-8"?>
<!-- Generator: Adobe Illustrator 19.0.0, SVG Export Plug-In . SVG Version: 6.00 Build 0)  -->
<svg version="1.1" id="Layer_1" xmlns="http://www.w3.org/2000/svg" xmlns:xlink="http://www.w3.org/1999/xlink" x="0px" y="0px"
	 viewBox="-180 272 250 250" style="enable-background:new -180 272 250 250;" xml:space="preserve">
<style type="text/css">
	.st0{fill:#E4F5FD;}
	.st1{clip-path:url(#XMLID_3_);}
	.st2{fill:#8CC541;stroke:#8CC541;stroke-linecap:round;stroke-linejoin:round;stroke-miterlimit:10;}
	.st3{fill:#8A5E3C;}
	.st4{fill:#A87D50;}
	.st5{fill:#E7E7E7;}
	.st6{opacity:0.5;fill:#D1D2D3;}
	.st7{fill:#A6A8AC;}
	.st8{fill:#929497;}
	.st9{fill:#808184;}
	.st10{opacity:0.3;fill:#754D29;}
	.st11{fill:#3BB34A;stroke:#3BB34A;stroke-linecap:round;stroke-linejoin:round;stroke-miterlimit:10;}
	.st12{fill:#BBBDBF;}
	.st13{fill:#38C0C7;}
</style>
<circle id="XMLID_105_" class="st0" cx="-55" cy="397" r="125"/>
<g id="XMLID_49_">
	<defs>
		<circle id="XMLID_50_" cx="-55" cy="397" r="125"/>
	</defs>
	<clipPath id="XMLID_3_">
		<use xlink:href="#XMLID_50_"  style="overflow:visible;"/>
	</clipPath>
	<g id="XMLID_51_" class="st1">
		<path id="XMLID_104_" class="st2" d="M94.6,528.3c-0.9-2.3-20.4-10.8-22.8-10.4s-4.9,1.3-7.2,0.5c-1.5-0.5-2.6-1.7-4-2.3
			c-2.9-1.3-6.3,0-9.5,0s-7.1-2.5-6-5.5c-4.4,4.7-13.8,2.3-15.4-4c-0.4-1.6-0.6-3.7-2.1-4.3c-1.3-0.5-2.7,0.4-3.8,1.2
			c-3,2.2-5.9,4.4-8.9,6.6c-1.8-2.4-3.7-4.8-5.5-7.2c1.4,6.3-1.5,13.4-6.8,16.9c-1.9-5.3-1.8-11.2,0.3-16.4c-4.9-0.3-9.9,1.5-13.4,5
			c0.7-5.5,1.5-11.1,2.2-16.6c-6.1,6.3-11.1,13.7-14.7,21.7c-2.3-4.8-6.9-10.5-11.7-8.1c-3,1.5-5.2,6.1-8.3,4.8
			c-0.9-0.4-1.6-1.3-2.4-2c-2.9-2.4-8.1-0.1-8.4,3.6c-1.7-3-3.5-6-5.2-9c-1.8,3.1-4.1,6-6.8,8.3c-3.8-8.6-7.2-17.4-10-26.4
			c-4.6,9.2-8.5,18.8-11.5,28.7c-4.9-2.2-9.8-4.4-14.7-6.6c-0.8,1.3-1.6,2.5-2.5,3.8c-0.9-1-1.8-2-2.7-3c-1.5,2.1-3.5,4-5.7,5.4
			c-4.1-4.2-8.3-8.3-12.4-12.5c-1.2,4.1-2.4,8.2-3.7,12.3c-4.6-3.4-9.3-6.6-14.2-9.7c-1.4,4.7-2.9,9.4-4.3,14.1
			c-4.1-7.3-9.7-13.8-16.2-19c1.6,6.1,1.6,12.6,0,18.8c-3.4-4.5-8.5-7.6-14.1-8.5c2.4,3.9,4.7,7.9,7.1,11.8c0,0-15.5-0.8-29.6,8
			H94.6z"/>
		<path id="XMLID_103_" class="st2" d="M-180.5,522c0.8-2.2,18-10.3,20.1-9.9c2.1,0.4,4.3,1.3,6.3,0.5c1.3-0.5,2.3-1.6,3.6-2.2
			c2.6-1.2,5.5,0,8.4,0c2.8,0.1,6.3-2.4,5.3-5.3c3.9,4.6,12.2,2.2,13.6-3.8c0.4-1.6,0.5-3.5,1.9-4.1c1.1-0.5,2.4,0.3,3.4,1.1
			c2.6,2.1,5.2,4.2,7.8,6.3c1.6-2.3,3.2-4.6,4.9-7c-1.2,6.1,1.3,12.8,6,16.2c1.7-5,1.6-10.8-0.2-15.7c4.3-0.3,8.7,1.5,11.8,4.8
			c-0.7-5.3-1.3-10.6-2-15.9c5.4,6,9.8,13.1,12.9,20.8c2-4.6,6.1-10,10.3-7.7c2.6,1.5,4.6,5.9,7.3,4.6c0.8-0.4,1.4-1.3,2.1-1.9
			c2.6-2.3,7.2-0.1,7.4,3.5c1.5-2.9,3-5.8,4.6-8.7c1.6,3,3.6,5.7,6,8c3.3-8.3,6.3-16.7,8.9-25.3c4.1,8.9,7.5,18.1,10.2,27.5
			c4.3-2.1,8.7-4.2,13-6.4c0.7,1.2,1.4,2.4,2.2,3.6c0.8-1,1.6-1.9,2.4-2.9c1.3,2.1,3,3.8,5,5.1c3.7-4,7.3-8,11-12
			c1.1,3.9,2.2,7.9,3.2,11.8c4-3.3,8.2-6.4,12.5-9.3c1.3,4.5,2.5,9,3.8,13.6c3.6-7,8.5-13.2,14.3-18.2c-1.4,5.9-1.4,12.1,0,18
			c3-4.3,7.5-7.3,12.4-8.1c-2.1,3.8-4.2,7.5-6.3,11.3c0,0,15.8-0.8,28.2,7.7H-180.5z"/>
		<rect id="XMLID_102_" x="-72.9" y="406.7" class="st3" width="33.6" height="118.4"/>
		<rect id="XMLID_101_" x="-58" y="406.7" class="st4" width="33.6" height="118.4"/>
		<path id="XMLID_100_" class="st5" d="M-21.6,310.4L-21.6,310.4C0.3,310.4,18,328.1,18,350v48.8c0,4.4-3.6,7.9-7.9,7.9h-130.2
			c-4.4,0-7.9-3.6-7.9-7.9V350c0-21.9,17.8-39.7,39.7-39.7h0H-21.6z"/>
		<path id="XMLID_99_" class="st6" d="M-95.9,317.8L-95.9,317.8H-5l0,0c2.4,0,4.7,0.1,6.9,0.3c-6.6-4.9-14.7-7.8-23.6-7.8h0h-66.7h0
			c-10,0-19.2,3.7-26.2,9.9C-108.7,318.6-102.4,317.8-95.9,317.8z"/>
		<path id="XMLID_98_" class="st7" d="M-82.8,310.4L-82.8,310.4c21.9,0,39.7,17.8,39.7,39.7v48.8c0,4.4-3.6,7.9-7.9,7.9h-69
			c-4.4,0-7.9-3.6-7.9-7.9V350c0-21.9,17.8-39.7,39.7-39.7h0H-82.8z"/>
		<path id="XMLID_97_" class="st8" d="M-128,399.6c0.4,4,3.8,7.1,7.9,7.1h69c4.4,0,7.9-3.6,7.9-7.9V350c0-15-8.3-28-20.6-34.8
			C-100.4,326-127.3,359.6-128,399.6z"/>
		<path id="XMLID_96_" class="st9" d="M-43.1,398.8V350c0-11.2-4.6-21.2-12-28.4c-7.4,7.2-12,17.3-12,28.4v48.8
			c0,4.4,3.6,7.9,7.9,7.9h8.2C-46.7,406.7-43.1,403.2-43.1,398.8z"/>
		<rect id="XMLID_95_" x="-72.9" y="406.7" class="st10" width="48.5" height="22.8"/>
		<path id="XMLID_94_" class="st11" d="M-146.3,515.4c0.5-2.3,11.7-10.7,13.1-10.3c1.4,0.4,2.8,1.3,4.1,0.5c0.8-0.5,1.5-1.7,2.3-2.3
			c1.7-1.3,3.6,0,5.4,0c1.8,0.1,4.1-2.5,3.5-5.4c2.5,4.7,7.9,2.3,8.8-4c0.2-1.6,0.3-3.6,1.2-4.3c0.7-0.5,1.6,0.3,2.2,1.2
			c1.7,2.2,3.4,4.4,5.1,6.5c1.1-2.4,2.1-4.8,3.2-7.2c-0.8,6.3,0.8,13.2,3.9,16.8c1.1-5.2,1-11.1-0.2-16.3c2.8-0.3,5.7,1.5,7.7,4.9
			c-0.4-5.5-0.9-11-1.3-16.5c3.5,6.2,6.4,13.5,8.4,21.5c1.3-4.7,4-10.4,6.7-8c1.7,1.5,3,6.1,4.8,4.7c0.5-0.4,0.9-1.3,1.4-2
			c1.7-2.4,4.7-0.1,4.8,3.6c1-3,2-6,3-9c1,3.1,2.4,5.9,3.9,8.2c2.2-8.5,0-9.3,1.6-18.2c2.6,9.2,9,10.7,10.7,20.5
			c2.8-2.2,5.6-4.4,8.5-6.6c0.5,1.3,0.9,2.5,1.4,3.8c0.5-1,1-2,1.6-3c0.9,2.1,2,3.9,3.3,5.3c2.4-4.1,4.8-8.3,7.1-12.4
			c0.7,4.1,1.4,8.1,2.1,12.2c2.6-3.4,5.3-6.6,8.1-9.6c0.8,4.7,1.7,9.3,2.5,14c2.4-7.2,5.5-13.7,9.3-18.8c-0.9,6.1-0.9,12.5,0,18.6
			c1.9-4.4,4.9-7.5,8.1-8.4c-1.4,3.9-2.7,7.8-4.1,11.7c0,0,10.3-0.8,18.4,7.9H-146.3z"/>
		<path id="XMLID_93_" class="st2" d="M100.9,531.6c-0.7-2-17.2-9.2-19.3-8.9c-2,0.4-4.1,1.2-6.1,0.5c-1.2-0.4-2.2-1.5-3.4-2
			c-2.5-1.1-5.3,0-8,0c-2.7,0.1-6-2.1-5.1-4.7c-3.7,4.1-11.7,2-13-3.4c-0.3-1.4-0.5-3.1-1.8-3.7c-1.1-0.5-2.3,0.3-3.2,1
			c-2.5,1.9-5,3.8-7.5,5.7c-1.6-2.1-3.1-4.1-4.7-6.2c1.2,5.4-1.2,4.5-5.8,7.6c-1.6-4.5-1.5-2.7,0.2-7.1c-4.1-0.3-8.4,1.3-11.3,4.3
			c0.6-4.7,1.3-9.5,1.9-14.2c-5.2,5.4-9.4,11.7-12.4,18.6c-2-4.1-5.9-9-9.9-6.9c-2.5,1.3-4.4,5.2-7,4.1c-0.8-0.4-1.3-1.1-2-1.7
			c-2.5-2.1-6.9-0.1-7.1,3.1c-1.5-2.6-2.9-5.2-4.4-7.7c-1.5,2.7-3.5,5.1-5.8,7.1c-3.2-7.4-6.1-14.9-8.5-22.6
			c-3.9,7.9-7.2,16.1-9.8,24.6c-4.2-1.9-8.3-3.8-12.5-5.7c-0.7,1.1-1.4,2.2-2.1,3.2c-0.8-0.9-1.5-1.7-2.3-2.6
			c-1.3,1.8-2.9,3.4-4.8,4.6c-3.5-3.6-7-7.1-10.5-10.7c-1,3.5-2.1,7-3.1,10.5c-3.9-2.9-7.9-5.7-12-8.3c-1.2,4-2.4,8.1-3.7,12.1
			c-3.5-6.2-8.2-11.8-13.7-16.3c1.3,5.2,1.3,10.8,0,16.1c-2.9-3.8-7.2-6.5-11.9-7.3c2,3.4,4,6.7,6,10.1c0,0-15.2-0.7-27.1,6.8H100.9
			z"/>
		<path id="XMLID_67_" class="st2" d="M55.5,531.6c-0.8-2-18-9.5-20.1-9.1c-2.1,0.4-4.3,1.2-6.3,0.5c-1.3-0.5-2.3-1.5-3.6-2.1
			c-2.6-1.1-5.5,0-8.4,0c-2.8,0.1-6.3-2.2-5.3-4.8c-3.9,4.2-12.2,2-13.6-3.5c-0.4-1.4-0.5-3.2-1.9-3.8c-1.1-0.5-2.4,0.3-3.4,1.1
			c-2.6,1.9-5.2,3.9-7.8,5.8c-1.6-2.1-3.2-4.3-4.9-6.4c1.2,5.6-1.3,11.8-6,14.9c-1.7-4.6-1.6-9.9,0.2-14.5
			c-4.3-0.3-8.7,1.3-11.8,4.4c0.7-4.9,1.3-9.8,2-14.7c-5.4,5.5-9.8,12-13,19.1c-2-4.2-6.1-9.2-10.3-7.1c-2.6,1.3-4.6,5.4-7.3,4.2
			c-0.8-0.4-1.4-1.2-2.1-1.7c-2.6-2.1-7.2-0.1-7.4,3.2c-1.5-2.7-3-5.3-4.6-8c-1.6,2.8-3.6,5.3-6,7.3c-3.4-7.6-6.3-15.4-8.9-23.3
			c-4.1,8.2-7.5,16.6-10.2,25.3c-4.3-1.9-8.7-3.9-13-5.8c-0.7,1.1-1.5,2.2-2.2,3.3c-0.8-0.9-1.6-1.8-2.4-2.6c-1.3,1.9-3,3.5-5,4.7
			c-3.7-3.7-7.3-7.3-11-11c-1.1,3.6-2.2,7.2-3.2,10.8c-4-3-8.2-5.9-12.5-8.5c-1.3,4.2-2.6,8.3-3.8,12.5c-3.6-6.4-8.5-12.2-14.3-16.8
			c1.4,5.4,1.4,11.2,0,16.6c-3-4-7.5-6.7-12.4-7.5c2.1,3.5,4.2,6.9,6.3,10.4c0,0-15.8-0.7-28.2,7H55.5z"/>
		<g id="XMLID_62_">
			<path class="st12" d="M-82.8,317.4c18,0,32.7,14.7,32.7,32.7v48.8c0,0.5-0.4,0.9-0.9,0.9h-69c-0.5,0-0.9-0.4-0.9-0.9V350
				c0-18,14.7-32.7,32.7-32.7H-82.8 M-82.8,310.4L-82.8,310.4h-5.6h0c-21.9,0-39.7,17.8-39.7,39.7v48.8c0,4.4,3.6,7.9,7.9,7.9h69
				c4.4,0,7.9-3.6,7.9-7.9V350C-43.1,328.1-60.9,310.4-82.8,310.4L-82.8,310.4z"/>
		</g>
		<g id="XMLID_52_">
			<path id="XMLID_53_" class="st13" d="M4.5,382.1l-2.4-9.6c1.5-3.7,2.5-8.3,2.5-12.6c0-13.5-8.2-24-18.7-24
				c-10.3,0-18.6,11.1-18.6,24.6c0,13.8,8,24.7,18.2,24.7c3,0,6.3-1,8.8-2.7l8.1,2.6l3.1,1L4.5,382.1z M-21.2,364.1
				c-1.5,0-2.7-1.6-2.7-3.5c0-1.9,1.2-3.5,2.7-3.5c1.5,0,2.7,1.6,2.7,3.5C-18.5,362.5-19.7,364.1-21.2,364.1z M-14.1,364.1
				c-1.5,0-2.7-1.6-2.7-3.5c0-1.9,1.2-3.5,2.7-3.5s2.7,1.6,2.7,3.5C-11.4,362.5-12.6,364.1-14.1,364.1z M-6.9,364.1
				c-1.5,0-2.7-1.6-2.7-3.5c0-1.9,1.2-3.5,2.7-3.5s2.7,1.6,2.7,3.5C-4.3,362.5-5.5,364.1-6.9,364.1z"/>
		</g>
	</g>
</g>
</svg>
