<?xml version="1.0" encoding="utf-8"?>
<!-- Generator: Adobe Illustrator 19.0.0, SVG Export Plug-In . SVG Version: 6.00 Build 0)  -->
<svg version="1.1" id="Layer_1" xmlns="http://www.w3.org/2000/svg" xmlns:xlink="http://www.w3.org/1999/xlink" x="0px" y="0px"
	 viewBox="-180 272 250 250" style="enable-background:new -180 272 250 250;" xml:space="preserve">
<style type="text/css">
	.st0{fill:#E4F5FD;}
	.st1{fill:#FFFFFF;}
	.st2{fill:#38C0C7;}
</style>
<circle id="XMLID_28_" class="st0" cx="-55" cy="397" r="125"/>
<g id="XMLID_2_">
	<g id="XMLID_16_">
		<g id="XMLID_19_">
			<path class="st1" d="M-60.2,455c-12.1,0-24-3.1-34.4-9.1L-130,455l10.6-32.8c-7-11.1-10.6-23.9-10.6-37
				c0-38.5,31.3-69.8,69.8-69.8c38.5,0,69.8,31.3,69.8,69.8C9.7,423.6-21.7,455-60.2,455z"/>
		</g>
	</g>
	<g id="XMLID_9_">
		<g>
			<path class="st2" d="M20,420c0-27.1-22.3-47.8-49.3-47.8s-49,22-49,49.1c0,27.1,20.8,49.1,47.8,49.1c8.3,0,17.7-2.2,25-6.2
				l25.4,6.2l-7.6-23.4C17.2,439.3,20,429.1,20,420z"/>
		</g>
	</g>
	<g id="XMLID_7_">
		<circle id="XMLID_8_" class="st1" cx="-49.8" cy="421.3" r="7.8"/>
	</g>
	<g id="XMLID_5_">
		<circle id="XMLID_6_" class="st1" cx="-29.1" cy="421.3" r="7.8"/>
	</g>
	<g id="XMLID_3_">
		<circle id="XMLID_4_" class="st1" cx="-8.4" cy="421.3" r="7.8"/>
	</g>
</g>
</svg>
